# xmcd
# 
# Track frame offsets:
#     150
#     18705
#     38026
#     72335
#     83240
#     102612
#     136378
#     154299
# 
# Disc length: 2343
# 
# Revision: 1
# Processed by: cddbd v1.5.2PL0 Copyright (c) Steve Scherf et al.
# Submitted via: fre:ac v1.0.27
# 
DISCID=6d092508
DTITLE=Ten Years After - Cricklewood Green
DYEAR=1969
DGENRE=Blues Rock
TTITLE0=Sugar The Road
TTITLE1=Working On The Road
TTITLE2=50,000 Miles Beneath My Brain
TTITLE3=Year 3,000 Blues
TTITLE4=Me And My Baby
TTITLE5=Love Like A Man
TTITLE6=Circles
TTITLE7=As The Sun Still Burns Away
EXTD=
EXTT0=
EXTT1=
EXTT2=
EXTT3=
EXTT4=
EXTT5=
EXTT6=
EXTT7=
PLAYORDER=
